<svg xmlns="http://www.w3.org/2000/svg" width="20" height="17" viewBox="0 0 20 17" fill="none">
  <g clip-path="url(#clip0_14_2532)">
    <path d="M12.275 0.295539C11.7437 0.142414 11.1906 0.451789 11.0375 0.983039L7.0375 14.983C6.88437 15.5143 7.19375 16.0674 7.725 16.2205C8.25625 16.3737 8.80937 16.0643 8.9625 15.533L12.9625 1.53304C13.1156 1.00179 12.8062 0.448664 12.275 0.295539ZM14.7937 4.04866C14.4031 4.43929 14.4031 5.07366 14.7937 5.46429L17.5844 8.25804L14.7906 11.0518C14.4 11.4424 14.4 12.0768 14.7906 12.4674C15.1812 12.858 15.8156 12.858 16.2062 12.4674L19.7062 8.96741C20.0969 8.57679 20.0969 7.94241 19.7062 7.55179L16.2062 4.05179C15.8156 3.66116 15.1812 3.66116 14.7906 4.05179L14.7937 4.04866ZM5.20937 4.04866C4.81875 3.65804 4.18437 3.65804 3.79375 4.04866L0.293747 7.54866C-0.0968781 7.93929 -0.0968781 8.57366 0.293747 8.96429L3.79375 12.4643C4.18437 12.8549 4.81875 12.8549 5.20937 12.4643C5.6 12.0737 5.6 11.4393 5.20937 11.0487L2.41562 8.25804L5.20937 5.46429C5.6 5.07366 5.6 4.43929 5.20937 4.04866Z" fill="#8B5CF6"/>
  </g>
  <defs>
    <clipPath id="clip0_14_2532">
      <path d="M0 0.257812H20V16.2578H0V0.257812Z" fill="white"/>
    </clipPath>
  </defs>
</svg>