<svg xmlns="http://www.w3.org/2000/svg" width="20" height="17" viewBox="0 0 20 17" fill="none">
  <path d="M20 16.2578H0V0.257812H20V16.2578Z" stroke="#E5E7EB"/>
  <path d="M3 2.25781C3 1.70469 3.44688 1.25781 4 1.25781H5C5.55312 1.25781 6 1.70469 6 2.25781V7.25781V9.25781V14.2578C6 14.8109 5.55312 15.2578 5 15.2578H4C3.44688 15.2578 3 14.8109 3 14.2578V12.2578H2C1.44687 12.2578 1 11.8109 1 11.2578V9.25781C0.446875 9.25781 0 8.81094 0 8.25781C0 7.70469 0.446875 7.25781 1 7.25781V5.25781C1 4.70469 1.44687 4.25781 2 4.25781H3V2.25781ZM17 2.25781V4.25781H18C18.5531 4.25781 19 4.70469 19 5.25781V7.25781C19.5531 7.25781 20 7.70469 20 8.25781C20 8.81094 19.5531 9.25781 19 9.25781V11.2578C19 11.8109 18.5531 12.2578 18 12.2578H17V14.2578C17 14.8109 16.5531 15.2578 16 15.2578H15C14.4469 15.2578 14 14.8109 14 14.2578V9.25781V7.25781V2.25781C14 1.70469 14.4469 1.25781 15 1.25781H16C16.5531 1.25781 17 1.70469 17 2.25781ZM13 7.25781V9.25781H7V7.25781H13Z" fill="#6366F1"/>
</svg>