<svg xmlns="http://www.w3.org/2000/svg" width="14" height="17" viewBox="0 0 14 17" fill="none">
  <g clip-path="url(#clip0_14_2526)">
    <path d="M3 0.257812C1.34375 0.257812 0 1.60156 0 3.25781V13.2578C0 14.9141 1.34375 16.2578 3 16.2578H12H13C13.5531 16.2578 14 15.8109 14 15.2578C14 14.7047 13.5531 14.2578 13 14.2578V12.2578C13.5531 12.2578 14 11.8109 14 11.2578V1.25781C14 0.704687 13.5531 0.257812 13 0.257812H12H3ZM3 12.2578H11V14.2578H3C2.44688 14.2578 2 13.8109 2 13.2578C2 12.7047 2.44688 12.2578 3 12.2578ZM4 4.75781C4 4.48281 4.225 4.25781 4.5 4.25781H10.5C10.775 4.25781 11 4.48281 11 4.75781C11 5.03281 10.775 5.25781 10.5 5.25781H4.5C4.225 5.25781 4 5.03281 4 4.75781ZM4.5 6.25781H10.5C10.775 6.25781 11 6.48281 11 6.75781C11 7.03281 10.775 7.25781 10.5 7.25781H4.5C4.225 7.25781 4 7.03281 4 6.75781C4 6.48281 4.225 6.25781 4.5 6.25781Z" fill="#06B6D4"/>
  </g>
  <defs>
    <clipPath id="clip0_14_2526">
      <path d="M0 0.257812H14V16.2578H0V0.257812Z" fill="white"/>
    </clipPath>
  </defs>
</svg>