<svg xmlns="http://www.w3.org/2000/svg" width="14" height="17" viewBox="0 0 14 17" fill="none">
  <g clip-path="url(#clip0_14_2523)">
    <path d="M10 1.75781C10 1.35999 9.84196 0.978457 9.56066 0.697152C9.27936 0.415848 8.89782 0.257813 8.5 0.257812C8.10218 0.257813 7.72064 0.415848 7.43934 0.697152C7.15804 0.978457 7 1.35999 7 1.75781C7 2.15564 7.15804 2.53717 7.43934 2.81847C7.72064 3.09978 8.10218 3.25781 8.5 3.25781C8.89782 3.25781 9.27936 3.09978 9.56066 2.81847C9.84196 2.53717 10 2.15564 10 1.75781ZM3.92812 5.74219C4.2375 5.43281 4.65937 5.25781 5.1 5.25781C5.15937 5.25781 5.21875 5.26094 5.275 5.26719L4.3 8.19531C4.00938 9.07031 4.35312 10.0328 5.1375 10.5234L7.83125 12.2078L7.0375 14.9828C6.88438 15.5141 7.19375 16.0672 7.725 16.2203C8.25625 16.3734 8.80937 16.0641 8.9625 15.5328L9.85938 12.3953C10.0437 11.7516 9.77812 11.0641 9.2125 10.7109L7.4375 9.60156L8.40312 7.02656L8.5625 7.41094C9.03125 8.52969 10.1219 9.25781 11.3344 9.25781H12C12.5531 9.25781 13 8.81094 13 8.25781C13 7.70469 12.5531 7.25781 12 7.25781H11.3344C10.9313 7.25781 10.5656 7.01406 10.4125 6.64219L10.2156 6.17344C9.75937 5.07656 8.8375 4.23906 7.7 3.88906L6.17812 3.42031C5.83125 3.31406 5.46875 3.25781 5.10313 3.25781C4.13438 3.25781 3.20312 3.64219 2.51875 4.32969L1.79375 5.05156C1.40313 5.44219 1.40313 6.07656 1.79375 6.46719C2.18438 6.85781 2.81875 6.85781 3.20937 6.46719L3.93125 5.74531L3.92812 5.74219ZM2.85 11.2578H1C0.446875 11.2578 0 11.7047 0 12.2578C0 12.8109 0.446875 13.2578 1 13.2578H3.175C3.76875 13.2578 4.30625 12.9078 4.54688 12.3672L4.90625 11.5578L4.60938 11.3703C4.0625 11.0297 3.65625 10.5328 3.425 9.96719L2.85 11.2578Z" fill="#8B5CF6"/>
  </g>
  <defs>
    <clipPath id="clip0_14_2523">
      <path d="M0 0.257812H14V16.2578H0V0.257812Z" fill="white"/>
    </clipPath>
  </defs>
</svg>