<svg width="12" height="25" viewBox="0 0 12 25" fill="none" xmlns="http://www.w3.org/2000/svg">
<path d="M12 24.771H0V0.770996H12V24.771Z" stroke="#E5E7EB"/>
<g clip-path="url(#clip0_14_2486)">
<path d="M6 20.8354C2.6875 20.8354 0 18.1479 0 14.8354C0 11.9854 4.06875 6.63857 5.20625 5.20107C5.39375 4.9667 5.67188 4.83545 5.97188 4.83545H6.02812C6.32812 4.83545 6.60625 4.9667 6.79375 5.20107C7.93125 6.63857 12 11.9854 12 14.8354C12 18.1479 9.3125 20.8354 6 20.8354ZM3 15.3354C3 15.0604 2.775 14.8354 2.5 14.8354C2.225 14.8354 2 15.0604 2 15.3354C2 17.2698 3.56562 18.8354 5.5 18.8354C5.775 18.8354 6 18.6104 6 18.3354C6 18.0604 5.775 17.8354 5.5 17.8354C4.11875 17.8354 3 16.7167 3 15.3354Z" fill="#6366F1"/>
</g>
<defs>
<clipPath id="clip0_14_2486">
<path d="M0 4.83545H12V20.8354H0V4.83545Z" fill="white"/>
</clipPath>
</defs>
</svg>
