<svg xmlns="http://www.w3.org/2000/svg" width="16" height="16" viewBox="0 0 16 16" fill="none">
  <g clip-path="url(#clip0_14_2406)">
    <path d="M11.3344 0.603027L9.8219 2.11553L13.8844 6.17803L15.3969 4.66553C16.1782 3.88428 16.1782 2.61865 15.3969 1.8374L14.1657 0.603027C13.3844 -0.178223 12.1188 -0.178223 11.3375 0.603027H11.3344ZM9.11565 2.82178L1.83128 10.1093C1.50628 10.4343 1.26878 10.8374 1.13753 11.278L0.0312776 15.0374C-0.0468474 15.303 0.0250276 15.5874 0.218778 15.7812C0.412528 15.9749 0.696903 16.0468 0.959403 15.9718L4.71878 14.8655C5.1594 14.7343 5.56253 14.4968 5.88753 14.1718L13.1782 6.88428L9.11565 2.82178Z" fill="#06B6D4"/>
  </g>
  <defs>
    <clipPath id="clip0_14_2406">
      <path d="M0 0H16V16H0V0Z" fill="white"/>
    </clipPath>
  </defs>
</svg>